# xmcd
#
# Track frame offsets: 
#        150
#        13431
#        27988
#        44761
#        61880
#        79279
#        94753
#        113796
#        129970
#        152550
#
# Disc length: 2296 seconds
#
# Revision: 0
# Processed by: cddbd v1.5.2PL0 Copyright (c) Steve Scherf et al.
# Submitted via: ExactAudioCopyFreeDBPlugin 1.0
#
DISCID=8008f60a
DTITLE=Karim Ouellet - FOX
DYEAR=2012
DGENRE=POP
TTITLE0=Fox
TTITLE1=Foudre
TTITLE2=Le Lapin Blanc
TTITLE3=Marie-Jo
TTITLE4=Cyclone
TTITLE5=L'Amour
TTITLE6=La Moindre des Choses
TTITLE7=Les Brumes
TTITLE8=Décembre
TTITLE9=La Fin
EXTD=
EXTT0=
EXTT1=
EXTT2=
EXTT3=
EXTT4=
EXTT5=
EXTT6=
EXTT7=
EXTT8=
EXTT9=
PLAYORDER=
